<svg width="17" height="20" viewBox="0 0 17 20" fill="none" xmlns="http://www.w3.org/2000/svg">
<path fill-rule="evenodd" clip-rule="evenodd" d="M11.7761 0.126135C11.9432 -0.0420448 12.192 -0.0420448 12.3591 0.126135C12.5264 0.29338 12.5264 0.541578 12.3591 0.708756L11.2745 1.79345C11.6239 2.02676 11.9409 2.31227 12.2164 2.63881C12.8761 3.42065 13.297 4.4384 13.3547 5.54104L13.3558 5.5561C13.3563 5.5625 13.3567 5.5689 13.357 5.57535C13.3605 5.65043 13.3623 5.72591 13.3623 5.80166H3.3395C3.3395 5.72591 3.34116 5.65043 3.3447 5.57535C3.34497 5.56962 3.34538 5.56392 3.3458 5.55822L3.3458 5.5582C3.34622 5.55249 3.34664 5.54678 3.3469 5.54104C3.40477 4.4384 3.82555 3.42072 4.48525 2.63875C4.76081 2.3122 5.07768 2.0267 5.42712 1.79338L4.34263 0.708689C4.17539 0.541578 4.17539 0.29338 4.34263 0.126135C4.50974 -0.0420448 4.75841 -0.0420448 4.92565 0.126135L6.04672 1.24353L6.09857 1.29518C6.76328 0.962293 7.50861 0.796049 8.33856 0.794447L8.35084 0.794314H8.35097L8.36312 0.794447C9.19314 0.796049 9.93847 0.962293 10.6032 1.29518L10.655 1.24353L11.7761 0.126135ZM5.63541 3.71596C5.63541 4.0618 5.91578 4.34216 6.26161 4.34216C6.60745 4.34216 6.88781 4.0618 6.88781 3.71596C6.88781 3.37013 6.60745 3.08976 6.26161 3.08976C5.91578 3.08976 5.63541 3.37013 5.63541 3.71596ZM10.4401 4.34216C10.0943 4.34216 9.81394 4.0618 9.81394 3.71596C9.81394 3.37013 10.0943 3.08976 10.4401 3.08976C10.786 3.08976 11.0663 3.37013 11.0663 3.71596C11.0663 4.0618 10.786 4.34216 10.4401 4.34216ZM1.25174 14.9886C1.92052 14.9886 2.5036 14.4055 2.5036 13.7367V7.88948C2.5036 7.22431 1.92058 6.63815 1.25174 6.63815C0.583022 6.63815 0 7.22431 0 7.88948V13.7367C0 14.4054 0.583022 14.9886 1.25174 14.9886ZM11.6905 18.7481C11.6905 19.4168 11.1073 19.9999 10.4386 19.9999C9.76989 19.9999 9.18673 19.4168 9.1868 18.7481V15.8245H7.51495V18.7481C7.51495 19.4168 6.93186 20 6.26321 20C5.59437 20 5.01135 19.4168 5.01135 18.7481V15.8245H4.17539C3.67385 15.8245 3.3395 15.4901 3.3395 14.9886V6.63815H13.3623V14.9885C13.3623 15.49 13.028 15.8244 12.5264 15.8244H11.6905V18.7481ZM16.7018 13.7367C16.7018 14.4055 16.1188 14.9886 15.4501 14.9886C14.7812 14.9886 14.1982 14.4054 14.1982 13.7367V7.88948C14.1982 7.22431 14.7813 6.63815 15.4501 6.63815C16.1188 6.63815 16.7018 7.22431 16.7018 7.88948V13.7367Z" fill="#191826"/>
</svg>
